# xmcd CD database file
#
# Track frame offsets:
#	150
#	11765
#	25600
#	38712
#	50080
#	63545
#	76667
#	90650
#	102825
#	114932
#	127865
#	139102
#
# Disc length: 2017 seconds
#
# Revision: 0
# Processed by: cddbd v1.5.1PL0 Copyright (c) Steve Scherf et al.
# Submitted via: CDex 1.51
#
DISCID=8d07df0c
DTITLE=Cortijo y Su Combo - Cortijo En New York
DYEAR=1900
DGENRE=Salsa
TTITLE0=La Critica
TTITLE1=Chambeleque
TTITLE2=Ton Ton Canelo
TTITLE3=Bella Mujer
TTITLE4=Cuembe
TTITLE5=Mi Caballito
TTITLE6=La Caleza
TTITLE7=Cucala
TTITLE8=El Negrito Culembo
TTITLE9=La Chatarra
TTITLE10=A Bailar Bambule
TTITLE11=La Calabacita
EXTD=
EXTT0=
EXTT1=
EXTT2=
EXTT3=
EXTT4=
EXTT5=
EXTT6=
EXTT7=
EXTT8=
EXTT9=
EXTT10=
EXTT11=
PLAYORDER=
